<svg xmlns="http://www.w3.org/2000/svg" width="677" height="369" viewBox="0 0 677 369">
<g>
<path d="M 335.00 222.00 C333.05,223.95 331.67,224.00 282.63,224.00 C233.20,224.00 232.22,223.96 229.63,221.93 L 227.00 219.85 L 227.00 70.11 L 229.22 68.56 C231.16,67.20 237.86,67.00 282.00,67.00 L 284.38 67.00 C327.17,67.00 335.17,67.00 336.66,70.11 C337.00,70.83 337.00,71.71 337.00,72.79 C337.00,72.88 337.00,72.97 337.00,73.06 C337.00,77.26 339.62,76.85 340.43,72.51 C340.79,70.59 341.94,68.57 342.98,68.01 C345.00,66.93 442.73,66.55 446.68,67.61 C447.88,67.93 449.17,68.94 449.54,69.85 C450.33,71.77 450.18,218.36 449.39,220.43 C448.13,223.72 443.77,224.08 408.78,223.79 C389.74,223.63 373.87,223.21 373.51,222.85 C373.15,222.49 373.77,220.42 374.87,218.25 L 376.89 214.30 L 397.69 213.61 C409.14,213.22 422.21,213.22 426.75,213.60 L 435.00 214.29 L 435.00 146.00 L 437.28 146.00 C438.53,146.00 440.56,145.30 441.78,144.44 C443.85,142.99 444.00,142.13 444.00,131.44 C444.00,121.33 443.77,119.77 442.00,118.00 C440.90,116.90 438.88,116.00 437.50,116.00 C435.94,116.00 435.00,115.43 435.00,114.50 C435.00,113.61 435.92,113.00 437.28,113.00 C438.53,113.00 440.56,112.30 441.78,111.44 C443.86,109.98 444.00,109.15 444.00,98.10 C444.00,85.10 443.12,83.00 437.67,83.00 C435.37,83.00 435.00,82.58 435.00,80.00 L 435.00 77.00 L 340.00 77.00 L 340.00 80.00 C340.00,83.29 341.63,83.87 345.00,81.77 C346.62,80.76 347.26,80.83 348.62,82.19 C351.72,85.29 347.67,89.53 343.88,87.16 C340.64,85.14 340.00,85.85 340.00,91.50 C340.00,97.40 341.01,98.26 345.00,95.77 C347.63,94.12 350.53,96.76 349.54,99.89 C348.80,102.19 345.17,102.77 343.29,100.89 C341.32,98.92 340.00,100.99 340.00,106.06 C340.00,111.19 341.38,112.31 344.91,110.08 C347.65,108.34 350.60,111.27 349.36,114.50 C348.72,116.18 344.45,116.54 343.50,115.00 C343.16,114.45 342.23,114.00 341.44,114.00 C340.36,114.00 340.00,115.37 340.00,119.44 C340.00,124.96 341.26,127.14 343.29,125.11 C346.19,122.21 350.76,124.85 349.33,128.59 C348.84,129.86 347.83,130.05 344.36,129.53 L 340.00 128.88 L 340.00 138.98 L 344.75 138.74 C348.96,138.53 349.54,138.75 349.81,140.68 C350.18,143.29 347.13,145.33 344.95,143.95 C344.15,143.44 342.71,143.02 341.75,143.02 C340.29,143.00 340.00,143.92 340.00,148.50 C340.00,152.62 340.36,154.00 341.44,154.00 C342.23,154.00 343.16,153.55 343.50,153.00 C344.66,151.12 348.83,151.89 349.54,154.11 C350.58,157.41 347.77,159.67 344.49,158.18 C340.39,156.31 340.00,156.68 340.00,162.50 C340.00,168.32 340.39,168.69 344.49,166.82 C346.62,165.85 347.36,165.93 348.67,167.25 C351.73,170.30 347.63,174.50 343.88,172.16 C340.64,170.14 340.00,170.85 340.00,176.50 C340.00,182.40 341.01,183.26 345.00,180.77 C347.63,179.12 350.53,181.76 349.54,184.89 C348.83,187.11 344.66,187.88 343.50,186.00 C343.16,185.45 342.23,185.00 341.44,185.00 C340.36,185.00 340.00,186.38 340.00,190.50 C340.00,196.32 340.39,196.69 344.49,194.82 C347.77,193.33 350.58,195.59 349.54,198.89 C348.80,201.19 345.17,201.77 343.29,199.89 C341.18,197.78 340.00,200.13 340.00,206.46 L 340.00 212.81 L 350.56 213.53 C359.75,214.15 361.04,214.46 360.47,215.87 C360.12,216.77 359.58,219.02 359.26,220.87 L 358.70 224.24 L 351.39 223.77 C343.61,223.28 341.31,222.17 340.81,218.69 C340.39,215.78 337.00,215.10 337.00,217.93 C337.00,219.07 336.10,220.90 335.00,222.00 ZM 242.53 213.20 C243.28,213.95 327.60,214.12 332.75,213.38 L 337.00 212.77 L 337.00 205.89 C337.00,200.56 336.67,199.00 335.56,199.00 C334.77,199.00 333.84,199.45 333.50,200.00 C332.61,201.45 329.43,201.23 328.11,199.63 C325.90,196.97 329.95,192.55 332.37,194.97 C332.94,195.54 334.21,196.00 335.20,196.00 C336.69,196.00 337.00,195.15 337.00,191.06 C337.00,185.99 335.68,183.92 333.71,185.89 C331.16,188.44 326.32,185.93 327.56,182.70 C328.35,180.66 331.07,179.67 332.37,180.97 C332.94,181.54 334.21,182.00 335.20,182.00 C336.72,182.00 337.00,181.13 337.00,176.50 C337.00,172.38 336.64,171.00 335.56,171.00 C334.77,171.00 333.84,171.45 333.50,172.00 C332.51,173.60 329.19,173.15 328.13,171.28 C326.24,167.89 331.47,163.72 333.50,167.00 C333.84,167.55 334.77,168.00 335.56,168.00 C336.64,168.00 337.00,166.61 337.00,162.38 C337.00,156.46 336.89,156.37 331.88,158.44 C330.09,159.19 326.69,156.43 327.26,154.71 C328.01,152.46 330.92,151.47 332.98,152.76 C336.38,154.88 337.00,154.20 337.00,148.38 C337.00,143.02 336.90,142.80 334.75,143.47 C331.40,144.52 328.78,144.26 327.86,142.80 C325.98,139.84 329.84,136.80 332.98,138.76 C336.37,140.87 337.00,140.20 337.00,134.49 L 337.00 128.98 L 333.20 129.58 C328.64,130.31 325.84,128.11 328.00,125.50 C329.42,123.79 332.58,123.51 333.50,125.00 C333.84,125.55 334.77,126.00 335.56,126.00 C336.65,126.00 337.00,124.56 337.00,120.00 C337.00,115.44 336.65,114.00 335.56,114.00 C334.77,114.00 333.84,114.45 333.50,115.00 C332.46,116.68 329.13,116.11 328.04,114.07 C326.74,111.65 329.40,108.53 331.88,109.56 C336.89,111.63 337.00,111.54 337.00,105.62 C337.00,101.39 336.64,100.00 335.56,100.00 C334.77,100.00 333.84,100.45 333.50,101.00 C332.59,102.47 329.42,102.22 328.05,100.56 C326.40,98.57 328.51,94.60 330.84,95.34 C331.28,95.48 331.70,95.62 332.08,95.74 C334.65,96.57 335.89,96.97 336.48,96.52 C337.02,96.10 337.02,94.96 337.00,92.77 C337.00,92.41 337.00,92.03 337.00,91.62 C337.00,87.39 336.64,86.00 335.56,86.00 C334.77,86.00 333.84,86.45 333.50,87.00 C332.51,88.60 329.19,88.15 328.13,86.28 C326.24,82.89 331.47,78.72 333.50,82.00 C334.86,84.19 337.00,82.97 337.00,80.00 L 337.00 77.00 L 242.00 77.00 L 242.00 80.00 C242.00,82.64 241.65,83.00 239.12,83.00 C234.39,83.00 233.72,84.86 233.60,98.15 C233.51,109.11 233.68,110.37 235.47,111.62 C236.56,112.38 238.47,113.00 239.72,113.00 C241.08,113.00 242.00,113.61 242.00,114.50 C242.00,115.40 241.08,116.00 239.69,116.00 C234.51,116.00 233.80,117.68 233.44,130.80 C233.13,142.33 233.23,143.05 235.28,144.48 C236.47,145.32 238.47,146.00 239.72,146.00 L 242.00 146.00 L 242.00 179.33 C242.00,197.67 242.24,212.91 242.53,213.20 Z" fill="rgb(13,12,10)"/>
<path d="M 425.82 223.87 C403.14,224.42 369.22,224.65 365.42,223.99 C364.42,223.81 363.74,223.71 363.30,223.34 C362.40,222.57 362.50,220.64 362.79,214.58 L 362.81 214.11 C362.94,211.56 364.15,208.55 366.36,205.34 C368.21,202.65 370.05,199.34 370.44,197.98 C371.39,194.72 394.54,145.59 405.77,123.00 C409.99,114.51 411.54,113.70 418.00,116.68 C422.59,118.80 422.88,120.24 419.64,125.02 C418.34,126.93 416.96,129.52 416.57,130.76 C416.18,132.01 412.12,140.79 407.55,150.26 C402.99,159.74 397.57,171.10 395.50,175.50 C393.44,179.90 388.62,189.95 384.79,197.83 C380.97,205.72 377.98,212.30 378.17,212.47 C378.35,212.63 391.21,212.96 406.75,213.20 L 414.50 213.32 C409.30,213.32 403.30,213.42 397.69,213.61 L 376.89 214.30 L 374.87 218.25 C373.77,220.42 373.15,222.49 373.51,222.85 C373.87,223.21 389.74,223.63 408.78,223.79 C415.54,223.84 421.15,223.88 425.82,223.87 ZM 437.28 113.00 C435.92,113.00 435.00,113.61 435.00,114.50 L 435.00 80.00 C435.00,82.58 435.37,83.00 437.67,83.00 C443.12,83.00 444.00,85.10 444.00,98.10 C444.00,109.15 443.86,109.98 441.78,111.44 C440.56,112.30 438.53,113.00 437.28,113.00 ZM 437.28 146.00 L 435.00 146.00 L 435.00 114.50 C435.00,115.43 435.94,116.00 437.50,116.00 C438.88,116.00 440.90,116.90 442.00,118.00 C443.77,119.77 444.00,121.33 444.00,131.44 C444.00,142.13 443.85,142.99 441.78,144.44 C440.56,145.30 438.53,146.00 437.28,146.00 ZM 241.98 146.00 L 239.72 146.00 C238.47,146.00 236.47,145.32 235.28,144.48 C233.23,143.05 233.13,142.33 233.44,130.80 C233.80,117.68 234.51,116.00 239.69,116.00 C240.93,116.00 241.80,115.52 241.97,114.77 C241.97,126.10 241.97,136.52 241.98,146.00 ZM 241.97 114.23 C241.80,113.49 240.94,113.00 239.72,113.00 C238.47,113.00 236.56,112.38 235.47,111.62 C233.68,110.37 233.51,109.11 233.60,98.15 C233.72,84.86 234.39,83.00 239.12,83.00 C241.52,83.00 241.96,82.68 242.00,80.39 L 241.98 97.75 C241.98,103.44 241.97,108.93 241.97,114.23 ZM 424.84 113.45 C424.29,114.66 423.99,115.39 423.47,115.64 C422.73,116.00 421.54,115.42 418.51,113.95 C418.34,113.86 418.17,113.78 417.99,113.69 C413.45,111.49 411.79,110.70 411.58,109.62 C411.46,109.01 411.83,108.29 412.42,107.16 L 412.47 107.06 C414.49,103.14 416.49,102.68 421.59,104.94 C426.32,107.03 426.98,108.76 424.84,113.45 ZM 424.59 213.47 L 435.00 213.63 L 435.00 214.29 L 426.75 213.60 C426.16,213.55 425.44,213.51 424.59,213.47 ZM 242.53 213.20 C242.51,213.17 242.49,213.06 242.46,212.85 C242.47,212.93 242.48,212.97 242.49,212.99 C242.78,213.45 264.66,213.76 286.85,213.85 C264.73,213.81 242.91,213.58 242.53,213.20 ZM 242.41 212.22 C242.18,208.56 242.00,195.09 242.00,179.33 L 242.00 161.90 C242.06,191.13 242.20,208.46 242.41,212.22 ZM 329.73 87.64 C331.11,88.23 332.83,88.08 333.50,87.00 C332.58,88.49 331.00,88.44 329.73,87.64 ZM 327.74 84.50 C327.69,83.91 327.81,83.31 328.13,82.72 C328.48,82.11 329.06,81.65 329.73,81.36 C328.68,82.03 327.83,83.22 327.74,84.50 ZM 446.18 222.89 C445.99,222.96 445.47,223.04 444.66,223.11 C445.48,222.98 446.16,222.82 446.72,222.65 C446.54,222.73 446.36,222.81 446.18,222.89 Z" fill="rgb(243,199,40)"/>
<path d="M 241.98 146.00 C241.97,136.52 241.97,126.10 241.97,114.77 C241.99,114.69 242.00,114.59 242.00,114.50 C242.00,114.41 241.99,114.32 241.97,114.23 C241.97,108.93 241.98,103.44 241.98,97.75 L 242.00 80.39 C242.00,80.27 242.00,80.14 242.00,80.00 L 242.00 77.00 L 337.00 77.00 L 337.00 80.00 C337.00,82.97 334.86,84.19 333.50,82.00 C332.58,80.51 331.00,80.56 329.73,81.36 C329.06,81.65 328.48,82.11 328.13,82.72 C327.81,83.31 327.69,83.91 327.74,84.50 C327.69,85.09 327.81,85.69 328.13,86.28 C328.48,86.89 329.06,87.35 329.73,87.64 C331.00,88.44 332.58,88.49 333.50,87.00 C333.84,86.45 334.77,86.00 335.56,86.00 C336.64,86.00 337.00,87.39 337.00,91.62 C337.00,92.03 337.00,92.41 337.00,92.77 C337.02,94.96 337.02,96.10 336.48,96.52 C335.89,96.97 334.65,96.57 332.08,95.74 C331.70,95.62 331.28,95.48 330.84,95.34 C328.51,94.60 326.40,98.57 328.05,100.56 C329.42,102.22 332.59,102.47 333.50,101.00 C333.84,100.45 334.77,100.00 335.56,100.00 C336.64,100.00 337.00,101.39 337.00,105.62 C337.00,111.54 336.89,111.63 331.88,109.56 C329.40,108.53 326.74,111.65 328.04,114.07 C329.13,116.11 332.46,116.68 333.50,115.00 C333.84,114.45 334.77,114.00 335.56,114.00 C336.65,114.00 337.00,115.44 337.00,120.00 C337.00,124.56 336.65,126.00 335.56,126.00 C334.77,126.00 333.84,125.55 333.50,125.00 C332.58,123.51 329.42,123.79 328.00,125.50 C325.84,128.11 328.64,130.31 333.20,129.58 L 337.00 128.98 L 337.00 134.49 C337.00,140.20 336.37,140.87 332.98,138.76 C329.84,136.80 325.98,139.84 327.86,142.80 C328.78,144.26 331.40,144.52 334.75,143.47 C336.90,142.80 337.00,143.02 337.00,148.38 C337.00,154.20 336.38,154.88 332.98,152.76 C330.92,151.47 328.01,152.46 327.26,154.71 C326.69,156.43 330.09,159.19 331.88,158.44 C336.89,156.37 337.00,156.46 337.00,162.38 C337.00,166.61 336.64,168.00 335.56,168.00 C334.77,168.00 333.84,167.55 333.50,167.00 C331.47,163.72 326.24,167.89 328.13,171.28 C329.19,173.15 332.51,173.60 333.50,172.00 C333.84,171.45 334.77,171.00 335.56,171.00 C336.64,171.00 337.00,172.38 337.00,176.50 C337.00,181.13 336.72,182.00 335.20,182.00 C334.21,182.00 332.94,181.54 332.37,180.97 C331.07,179.67 328.35,180.66 327.56,182.70 C326.32,185.93 331.16,188.44 333.71,185.89 C335.68,183.92 337.00,185.99 337.00,191.06 C337.00,195.15 336.69,196.00 335.20,196.00 C334.21,196.00 332.94,195.54 332.37,194.97 C329.95,192.55 325.90,196.97 328.11,199.63 C329.43,201.23 332.61,201.45 333.50,200.00 C333.84,199.45 334.77,199.00 335.56,199.00 C336.67,199.00 337.00,200.56 337.00,205.89 L 337.00 212.77 L 332.75 213.38 C330.21,213.75 308.39,213.89 286.85,213.85 C264.66,213.76 242.78,213.45 242.49,212.99 C242.48,212.97 242.47,212.93 242.46,212.85 L 242.46 212.85 C242.45,212.70 242.43,212.48 242.41,212.22 C242.20,208.46 242.06,191.13 242.00,161.90 L 242.00 146.00 ZM 424.59 213.47 C422.08,213.36 418.53,213.31 414.50,213.32 L 406.75 213.20 C391.21,212.96 378.35,212.63 378.17,212.47 C377.98,212.30 380.97,205.72 384.79,197.83 C388.62,189.95 393.44,179.90 395.50,175.50 C397.57,171.10 402.99,159.74 407.55,150.26 C412.12,140.79 416.18,132.01 416.57,130.76 C416.96,129.52 418.34,126.93 419.64,125.02 C422.88,120.24 422.59,118.80 418.00,116.68 C411.54,113.70 409.99,114.51 405.77,123.00 C394.54,145.59 371.39,194.72 370.44,197.98 C370.05,199.34 368.21,202.65 366.36,205.34 C364.15,208.55 362.94,211.56 362.81,214.11 L 362.79 214.58 C362.50,220.64 362.40,222.57 363.30,223.34 C363.74,223.71 364.42,223.81 365.42,223.99 C366.36,224.15 369.12,224.26 373.09,224.33 L 369.45 228.08 C367.28,230.33 364.28,232.80 362.80,233.58 C361.31,234.36 359.93,235.00 359.72,235.00 C358.60,235.00 358.00,233.29 357.98,230.08 C357.98,228.11 357.64,226.00 357.23,225.40 C356.83,224.79 353.67,224.04 350.21,223.74 C343.37,223.13 341.29,222.02 340.81,218.69 C341.31,222.17 343.61,223.28 351.39,223.77 L 358.70 224.24 L 359.26 220.87 C359.58,219.02 360.12,216.77 360.47,215.87 C361.04,214.46 359.75,214.15 350.56,213.53 L 340.00 212.81 L 340.00 206.46 C340.00,200.13 341.18,197.78 343.29,199.89 C345.17,201.77 348.80,201.19 349.54,198.89 C350.58,195.59 347.77,193.33 344.49,194.82 C340.39,196.69 340.00,196.32 340.00,190.50 C340.00,186.38 340.36,185.00 341.44,185.00 C342.23,185.00 343.16,185.45 343.50,186.00 C344.66,187.88 348.83,187.11 349.54,184.89 C350.53,181.76 347.63,179.12 345.00,180.77 C341.01,183.26 340.00,182.40 340.00,176.50 C340.00,170.85 340.64,170.14 343.88,172.16 C347.63,174.50 351.73,170.30 348.67,167.25 C347.36,165.93 346.62,165.85 344.49,166.82 C340.39,168.69 340.00,168.32 340.00,162.50 C340.00,156.68 340.39,156.31 344.49,158.18 C347.77,159.67 350.58,157.41 349.54,154.11 C348.83,151.89 344.66,151.12 343.50,153.00 C343.16,153.55 342.23,154.00 341.44,154.00 C340.36,154.00 340.00,152.62 340.00,148.50 C340.00,143.92 340.29,143.00 341.75,143.02 C342.71,143.02 344.15,143.44 344.95,143.95 C347.13,145.33 350.18,143.29 349.81,140.68 C349.54,138.75 348.96,138.53 344.75,138.74 L 340.00 138.98 L 340.00 128.88 L 344.36 129.53 C347.83,130.05 348.84,129.86 349.33,128.59 C350.76,124.85 346.19,122.21 343.29,125.11 C341.26,127.14 340.00,124.96 340.00,119.44 C340.00,115.37 340.36,114.00 341.44,114.00 C342.23,114.00 343.16,114.45 343.50,115.00 C344.45,116.54 348.72,116.18 349.36,114.50 C350.60,111.27 347.65,108.34 344.91,110.08 C341.38,112.31 340.00,111.19 340.00,106.06 C340.00,100.99 341.32,98.92 343.29,100.89 C345.17,102.77 348.80,102.19 349.54,99.89 C350.53,96.76 347.63,94.12 345.00,95.77 C341.01,98.26 340.00,97.40 340.00,91.50 C340.00,85.85 340.64,85.14 343.88,87.16 C347.67,89.53 351.72,85.29 348.62,82.19 C347.26,80.83 346.62,80.76 345.00,81.77 C341.63,83.87 340.00,83.29 340.00,80.00 L 340.00 77.00 L 435.00 77.00 L 435.00 213.63 ZM 424.84 113.45 C426.98,108.76 426.32,107.03 421.59,104.94 C416.49,102.68 414.49,103.14 412.47,107.06 L 412.42 107.16 C411.83,108.29 411.46,109.01 411.58,109.62 C411.79,110.70 413.45,111.49 417.99,113.69 C418.17,113.78 418.34,113.86 418.51,113.95 C421.54,115.42 422.73,116.00 423.47,115.64 C423.99,115.39 424.29,114.66 424.84,113.45 ZM 243.17 67.19 C232.97,67.39 230.33,67.78 229.22,68.56 L 227.00 70.11 L 227.00 219.85 L 226.98 151.18 C226.97,111.46 226.54,79.63 225.97,75.68 C225.12,69.79 225.22,68.64 226.66,67.19 C227.59,66.27 228.49,65.96 228.67,66.51 C228.78,66.84 233.75,67.07 243.17,67.19 ZM 425.82 223.87 C429.95,223.86 433.35,223.82 436.14,223.74 C432.35,223.87 427.45,223.94 421.10,223.98 C422.71,223.94 424.29,223.90 425.82,223.87 ZM 449.41 220.39 C449.40,220.40 449.40,220.41 449.39,220.42 C449.79,219.23 450.03,181.14 450.06,143.57 C450.03,181.20 449.80,219.35 449.41,220.39 ZM 336.66 70.08 C336.97,70.72 337.00,71.49 337.00,72.42 C337.00,71.51 336.96,70.75 336.66,70.11 C335.91,68.54 333.51,67.77 325.83,67.38 C333.50,67.73 335.91,68.51 336.66,70.08 Z" fill="rgb(248,228,133)"/>
<path d="M 0.00 184.50 L 0.00 0.00 L 338.50 0.00 L 677.00 0.00 L 677.00 184.50 L 677.00 369.00 L 338.50 369.00 L 0.00 369.00 L 0.00 184.50 ZM 362.80 233.58 C364.28,232.80 367.28,230.33 369.45,228.08 L 373.41 224.00 L 408.66 224.00 C444.05,224.00 448.16,223.64 449.41,220.39 C450.19,218.35 450.32,71.75 449.54,69.85 C449.17,68.94 447.88,67.93 446.68,67.61 C442.73,66.55 345.00,66.93 342.98,68.01 C341.94,68.57 340.79,70.59 340.43,72.51 C339.61,76.87 337.00,77.26 337.00,73.02 C337.00,66.83 337.81,66.92 280.63,67.22 C247.16,67.40 228.88,67.15 228.67,66.51 C228.49,65.96 227.59,66.27 226.66,67.19 C225.22,68.64 225.12,69.79 225.97,75.68 C226.54,79.63 226.97,111.46 226.98,151.18 L 227.00 219.85 L 229.63 221.93 C232.22,223.96 233.20,224.00 282.63,224.00 C331.67,224.00 333.05,223.95 335.00,222.00 C336.10,220.90 337.00,219.07 337.00,217.93 C337.00,215.10 340.39,215.78 340.81,218.69 C341.29,222.02 343.37,223.13 350.21,223.74 C353.67,224.04 356.83,224.79 357.23,225.40 C357.64,226.00 357.98,228.11 357.98,230.08 C358.00,233.29 358.60,235.00 359.72,235.00 C359.93,235.00 361.31,234.36 362.80,233.58 Z" fill="rgb(254,254,254)"/>
</g>
</svg>